# xmcd CD database file
#
# Track frame offsets:
#	150
#	12405
#	28917
#	42259
#	63620
#	85241
#	96891
#	117565
#	136768
#	150606
#	177394
#	188357
#
# Disc length: 2884 seconds
#
# Revision: 0
# Processed by: cddbd v1.5.1PL0 Copyright (c) Steve Scherf et al.
# Submitted via: CDex 1.51
#
DISCID=9c0b420c
DTITLE=Wallspace - Nightweather
DYEAR=2005
DGENRE=Rock
TTITLE0=How's Your Love Life
TTITLE1=Stuck Inside The Nightweather
TTITLE2=Everything I Wanted
TTITLE3=Meet Me Up By The Lighthouse
TTITLE4=Should I Call
TTITLE5=Death Of The Cool
TTITLE6=America Is
TTITLE7=Where Has The Singer Gone
TTITLE8=The Future
TTITLE9=Rosetta
TTITLE10=I Don't Care
TTITLE11=Ballad Of Charlie Casablanca
EXTD=YEAR: 2005
EXTT0=
EXTT1=
EXTT2=
EXTT3=
EXTT4=
EXTT5=
EXTT6=
EXTT7=
EXTT8=
EXTT9=
EXTT10=
EXTT11=
PLAYORDER=
